Marilyn Monroe : Monkey Business (1952)       
  
 
Verenigde Staten
Fantasy / Komedie
97 minuten

geregisseerd door Howard Hawks
met Cary Grant, Ginger Rogers en Charles Coburn

Dr. Barnaby Fultan (Cary Grant) is de saaie wetenschapper die aan een verjongingsmiddel werkt, zonder succes. Tot het moment dat de chimpansee waar hij mee werkt, uitbreekt en het laboratorium overhoop gooit en per ongeluk de formule bereidt waar Fultan al jaren naar op zoek is. Fultan en zijn vrouw (Ginger Rogers) proberen het goedje uit met werkelijk de meest vreemde resultaten: zoals het steeds jonger worden met elke nieuwe dosis. Ook anderen wagen zich aan dit elixer, waaronder zijn norse baas en zijn secretaresse (Marilyn Monroe). Het resultaat is complete chaos.


English

Barnaby Fulton is a research chemist working on a fountain of youth pill for a chemical company. While trying a sample dose on himself, he accidentally gets a dose of a mixture added to the water cooler and believes his potion is what is working. The mixture temporarily causes him to feel and act like a teenager, including correcting his vision. When his wife gets a dose that is even larger, she regresses even further into her childhood. When an old boyfriend meets her in this state, he believes that her never wanting to see him again means a divorce and a chance for him. 


Spotinformatie 
Categorie : Beeld 
Formaat : DVD5 
Bron    : Retail
Cover   : Yes
Audio   : English, French, German, Italian, Spanish,
Subs    : Danish, Dutch, English, Finnish, French, German, Italian, Norwegian, Spanish, Swedish, 
Menu    : Yes
Beeld   : 4.3

Video
ID                               : 224 (0xE0)
Format                           : MPEG Video
Format version                   : Version 2
Format profile                   : Main@Main
Format settings, Matrix          : Default
Duration                         : 20mn 14s
Bit rate mode                    : Variable
Bit rate                         : 5 832 Kbps
Nominal bit rate                 : 7 500 Kbps
Width                            : 720 pixels
Height                           : 576 pixels
Display aspect ratio             : 4/3
Frame rate                       : 25.000 fps
Standard                         : PAL
Colorimetry                      : 4:2:0
Scan type                        : Progressive
Scan order                       : Top Field First
Bits/(Pixel*Frame)               : 0.563
Stream size                      : 844 MiB (82%)

Audio #1
ID                               : 128 (0x80)
Format                           : AC-3
Format/Info                      : Audio Coding 3
Duration                         : 20mn 14s
Bit rate mode                    : Constant
Bit rate                         : 192 Kbps
Channel(s)                       : 2 channels
Channel positions                : L R
Sampling rate                    : 48.0 KHz
Video delay                      : -496ms
Stream size                      : 27.8 MiB (3%) 

 
Genre : Komedie
Fantasiefilm



Weblink :  http://www.moviemeter.nl/film/4936 
Weblink :  http://www.imdb.com/title/tt0044916 

*****************************************

Brought to you by 
Pioen

2Lions Team

meer zien??
Kom dan eens kijken op ons forum 




2Lions the site to be for all your Dutch MOVIES and more

******************************************


DON T HIT AND RUN Niet gelijk afhaken als de FILM binnen is blijf seeden. 

Don`t quit after you finished the download, but keep seeding


There are fake torrents from uploaders who use our team name.
Those are not ours, or members from our team.
We 2Lions-Team are not responsible for the fake posts on our name

Wij 2Lions-Team zijn niet verantwoordelijk voor die zieke FAKE posten die op onze naam worden gedaan
 


 
 
 
